<?xml version="1.0" standalone="no"?>
<svg xmlns:xlink="http://www.w3.org/1999/xlink" id="wave" style="transform:rotate(0deg); transition: 0.3s" viewBox="0 0 1440 490" version="1.1" xmlns="http://www.w3.org/2000/svg"><defs><linearGradient id="sw-gradient-0" x1="0" x2="0" y1="1" y2="0"><stop stop-color="rgba(112.449, 0, 120.99, 1)" offset="0%"/><stop stop-color="rgba(237, 0, 255, 1)" offset="100%"/></linearGradient></defs><path style="transform:translate(0, 0px); opacity:1" fill="url(#sw-gradient-0)" d="M0,49L24,57.2C48,65,96,82,144,114.3C192,147,240,196,288,187.8C336,180,384,114,432,73.5C480,33,528,16,576,40.8C624,65,672,131,720,196C768,261,816,327,864,351.2C912,376,960,359,1008,343C1056,327,1104,310,1152,277.7C1200,245,1248,196,1296,212.3C1344,229,1392,310,1440,351.2C1488,392,1536,392,1584,326.7C1632,261,1680,131,1728,73.5C1776,16,1824,33,1872,57.2C1920,82,1968,114,2016,163.3C2064,212,2112,278,2160,285.8C2208,294,2256,245,2304,228.7C2352,212,2400,229,2448,236.8C2496,245,2544,245,2592,212.3C2640,180,2688,114,2736,130.7C2784,147,2832,245,2880,285.8C2928,327,2976,310,3024,326.7C3072,343,3120,392,3168,416.5C3216,441,3264,441,3312,424.7C3360,408,3408,376,3432,359.3L3456,343L3456,490L3432,490C3408,490,3360,490,3312,490C3264,490,3216,490,3168,490C3120,490,3072,490,3024,490C2976,490,2928,490,2880,490C2832,490,2784,490,2736,490C2688,490,2640,490,2592,490C2544,490,2496,490,2448,490C2400,490,2352,490,2304,490C2256,490,2208,490,2160,490C2112,490,2064,490,2016,490C1968,490,1920,490,1872,490C1824,490,1776,490,1728,490C1680,490,1632,490,1584,490C1536,490,1488,490,1440,490C1392,490,1344,490,1296,490C1248,490,1200,490,1152,490C1104,490,1056,490,1008,490C960,490,912,490,864,490C816,490,768,490,720,490C672,490,624,490,576,490C528,490,480,490,432,490C384,490,336,490,288,490C240,490,192,490,144,490C96,490,48,490,24,490L0,490Z"/></svg>