<?xml version="1.0" standalone="no"?>
<svg xmlns:xlink="http://www.w3.org/1999/xlink" id="wave" style="transform:rotate(0deg); transition: 0.3s" viewBox="0 0 1440 490" version="1.1" xmlns="http://www.w3.org/2000/svg"><defs><linearGradient id="sw-gradient-0" x1="0" x2="0" y1="1" y2="0"><stop stop-color="rgba(0, 121.04, 116.038, 1)" offset="0%"/><stop stop-color="rgba(2, 123, 118, 1)" offset="100%"/></linearGradient></defs><path style="transform:translate(0, 0px); opacity:1" fill="url(#sw-gradient-0)" d="M0,343L21.8,310.3C43.6,278,87,212,131,163.3C174.5,114,218,82,262,81.7C305.5,82,349,114,393,138.8C436.4,163,480,180,524,196C567.3,212,611,229,655,204.2C698.2,180,742,114,785,81.7C829.1,49,873,49,916,73.5C960,98,1004,147,1047,171.5C1090.9,196,1135,196,1178,220.5C1221.8,245,1265,294,1309,294C1352.7,294,1396,245,1440,236.8C1483.6,229,1527,261,1571,277.7C1614.5,294,1658,294,1702,245C1745.5,196,1789,98,1833,89.8C1876.4,82,1920,163,1964,204.2C2007.3,245,2051,245,2095,277.7C2138.2,310,2182,376,2225,383.8C2269.1,392,2313,343,2356,269.5C2400,196,2444,98,2487,65.3C2530.9,33,2575,65,2618,130.7C2661.8,196,2705,294,2749,334.8C2792.7,376,2836,359,2880,351.2C2923.6,343,2967,343,3011,334.8C3054.5,327,3098,310,3120,302.2L3141.8,294L3141.8,490L3120,490C3098.2,490,3055,490,3011,490C2967.3,490,2924,490,2880,490C2836.4,490,2793,490,2749,490C2705.5,490,2662,490,2618,490C2574.5,490,2531,490,2487,490C2443.6,490,2400,490,2356,490C2312.7,490,2269,490,2225,490C2181.8,490,2138,490,2095,490C2050.9,490,2007,490,1964,490C1920,490,1876,490,1833,490C1789.1,490,1745,490,1702,490C1658.2,490,1615,490,1571,490C1527.3,490,1484,490,1440,490C1396.4,490,1353,490,1309,490C1265.5,490,1222,490,1178,490C1134.5,490,1091,490,1047,490C1003.6,490,960,490,916,490C872.7,490,829,490,785,490C741.8,490,698,490,655,490C610.9,490,567,490,524,490C480,490,436,490,393,490C349.1,490,305,490,262,490C218.2,490,175,490,131,490C87.3,490,44,490,22,490L0,490Z"/></svg>