<?xml version="1.0" standalone="no"?>
<svg xmlns:xlink="http://www.w3.org/1999/xlink" id="wave" style="transform:rotate(0deg); transition: 0.3s" viewBox="0 0 1440 490" version="1.1" xmlns="http://www.w3.org/2000/svg"><defs><linearGradient id="sw-gradient-0" x1="0" x2="0" y1="1" y2="0"><stop stop-color="rgba(112.449, 0, 120.99, 1)" offset="0%"/><stop stop-color="rgba(237, 0, 255, 1)" offset="100%"/></linearGradient></defs><path style="transform:translate(0, 0px); opacity:1" fill="url(#sw-gradient-0)" d="M0,98L34.3,114.3C68.6,131,137,163,206,171.5C274.3,180,343,163,411,147C480,131,549,114,617,130.7C685.7,147,754,196,823,187.8C891.4,180,960,114,1029,147C1097.1,180,1166,310,1234,326.7C1302.9,343,1371,245,1440,220.5C1508.6,196,1577,245,1646,277.7C1714.3,310,1783,327,1851,294C1920,261,1989,180,2057,122.5C2125.7,65,2194,33,2263,65.3C2331.4,98,2400,196,2469,220.5C2537.1,245,2606,196,2674,220.5C2742.9,245,2811,343,2880,318.5C2948.6,294,3017,147,3086,98C3154.3,49,3223,98,3291,106.2C3360,114,3429,82,3497,130.7C3565.7,180,3634,310,3703,367.5C3771.4,425,3840,408,3909,359.3C3977.1,310,4046,229,4114,163.3C4182.9,98,4251,49,4320,89.8C4388.6,131,4457,261,4526,302.2C4594.3,343,4663,294,4731,261.3C4800,229,4869,212,4903,204.2L4937.1,196L4937.1,490L4902.9,490C4868.6,490,4800,490,4731,490C4662.9,490,4594,490,4526,490C4457.1,490,4389,490,4320,490C4251.4,490,4183,490,4114,490C4045.7,490,3977,490,3909,490C3840,490,3771,490,3703,490C3634.3,490,3566,490,3497,490C3428.6,490,3360,490,3291,490C3222.9,490,3154,490,3086,490C3017.1,490,2949,490,2880,490C2811.4,490,2743,490,2674,490C2605.7,490,2537,490,2469,490C2400,490,2331,490,2263,490C2194.3,490,2126,490,2057,490C1988.6,490,1920,490,1851,490C1782.9,490,1714,490,1646,490C1577.1,490,1509,490,1440,490C1371.4,490,1303,490,1234,490C1165.7,490,1097,490,1029,490C960,490,891,490,823,490C754.3,490,686,490,617,490C548.6,490,480,490,411,490C342.9,490,274,490,206,490C137.1,490,69,490,34,490L0,490Z"/><defs><linearGradient id="sw-gradient-1" x1="0" x2="0" y1="1" y2="0"><stop stop-color="rgba(0, 0, 0, 1)" offset="0%"/><stop stop-color="rgba(237, 0, 255, 1)" offset="100%"/></linearGradient></defs><path style="transform:translate(0, 50px); opacity:0.9" fill="url(#sw-gradient-1)" d="M0,0L34.3,0C68.6,0,137,0,206,8.2C274.3,16,343,33,411,81.7C480,131,549,212,617,204.2C685.7,196,754,98,823,98C891.4,98,960,196,1029,253.2C1097.1,310,1166,327,1234,351.2C1302.9,376,1371,408,1440,400.2C1508.6,392,1577,343,1646,334.8C1714.3,327,1783,359,1851,326.7C1920,294,1989,196,2057,130.7C2125.7,65,2194,33,2263,16.3C2331.4,0,2400,0,2469,24.5C2537.1,49,2606,98,2674,147C2742.9,196,2811,245,2880,236.8C2948.6,229,3017,163,3086,155.2C3154.3,147,3223,196,3291,220.5C3360,245,3429,245,3497,220.5C3565.7,196,3634,147,3703,163.3C3771.4,180,3840,261,3909,285.8C3977.1,310,4046,278,4114,261.3C4182.9,245,4251,245,4320,245C4388.6,245,4457,245,4526,245C4594.3,245,4663,245,4731,261.3C4800,278,4869,310,4903,326.7L4937.1,343L4937.1,490L4902.9,490C4868.6,490,4800,490,4731,490C4662.9,490,4594,490,4526,490C4457.1,490,4389,490,4320,490C4251.4,490,4183,490,4114,490C4045.7,490,3977,490,3909,490C3840,490,3771,490,3703,490C3634.3,490,3566,490,3497,490C3428.6,490,3360,490,3291,490C3222.9,490,3154,490,3086,490C3017.1,490,2949,490,2880,490C2811.4,490,2743,490,2674,490C2605.7,490,2537,490,2469,490C2400,490,2331,490,2263,490C2194.3,490,2126,490,2057,490C1988.6,490,1920,490,1851,490C1782.9,490,1714,490,1646,490C1577.1,490,1509,490,1440,490C1371.4,490,1303,490,1234,490C1165.7,490,1097,490,1029,490C960,490,891,490,823,490C754.3,490,686,490,617,490C548.6,490,480,490,411,490C342.9,490,274,490,206,490C137.1,490,69,490,34,490L0,490Z"/><defs><linearGradient id="sw-gradient-2" x1="0" x2="0" y1="1" y2="0"><stop stop-color="rgba(0, 0, 0, 1)" offset="0%"/><stop stop-color="rgba(237, 0, 255, 1)" offset="100%"/></linearGradient></defs><path style="transform:translate(0, 100px); opacity:0.8" fill="url(#sw-gradient-2)" d="M0,196L34.3,204.2C68.6,212,137,229,206,236.8C274.3,245,343,245,411,212.3C480,180,549,114,617,81.7C685.7,49,754,49,823,81.7C891.4,114,960,180,1029,196C1097.1,212,1166,180,1234,163.3C1302.9,147,1371,147,1440,163.3C1508.6,180,1577,212,1646,245C1714.3,278,1783,310,1851,294C1920,278,1989,212,2057,179.7C2125.7,147,2194,147,2263,171.5C2331.4,196,2400,245,2469,236.8C2537.1,229,2606,163,2674,171.5C2742.9,180,2811,261,2880,269.5C2948.6,278,3017,212,3086,179.7C3154.3,147,3223,147,3291,179.7C3360,212,3429,278,3497,269.5C3565.7,261,3634,180,3703,138.8C3771.4,98,3840,98,3909,130.7C3977.1,163,4046,229,4114,253.2C4182.9,278,4251,261,4320,277.7C4388.6,294,4457,343,4526,302.2C4594.3,261,4663,131,4731,89.8C4800,49,4869,98,4903,122.5L4937.1,147L4937.1,490L4902.9,490C4868.6,490,4800,490,4731,490C4662.9,490,4594,490,4526,490C4457.1,490,4389,490,4320,490C4251.4,490,4183,490,4114,490C4045.7,490,3977,490,3909,490C3840,490,3771,490,3703,490C3634.3,490,3566,490,3497,490C3428.6,490,3360,490,3291,490C3222.9,490,3154,490,3086,490C3017.1,490,2949,490,2880,490C2811.4,490,2743,490,2674,490C2605.7,490,2537,490,2469,490C2400,490,2331,490,2263,490C2194.3,490,2126,490,2057,490C1988.6,490,1920,490,1851,490C1782.9,490,1714,490,1646,490C1577.1,490,1509,490,1440,490C1371.4,490,1303,490,1234,490C1165.7,490,1097,490,1029,490C960,490,891,490,823,490C754.3,490,686,490,617,490C548.6,490,480,490,411,490C342.9,490,274,490,206,490C137.1,490,69,490,34,490L0,490Z"/></svg>