<?xml version="1.0" standalone="no"?>
<svg xmlns:xlink="http://www.w3.org/1999/xlink" id="wave" style="transform:rotate(0deg); transition: 0.3s" viewBox="0 0 1440 490" version="1.1" xmlns="http://www.w3.org/2000/svg"><defs><linearGradient id="sw-gradient-0" x1="0" x2="0" y1="1" y2="0"><stop stop-color="rgba(0, 121.04, 116.038, 1)" offset="0%"/><stop stop-color="rgba(2, 123, 118, 1)" offset="100%"/></linearGradient></defs><path style="transform:translate(0, 0px); opacity:1" fill="url(#sw-gradient-0)" d="M0,49L21.8,40.8C43.6,33,87,16,131,32.7C174.5,49,218,98,262,130.7C305.5,163,349,180,393,204.2C436.4,229,480,261,524,269.5C567.3,278,611,261,655,236.8C698.2,212,742,180,785,204.2C829.1,229,873,310,916,326.7C960,343,1004,294,1047,261.3C1090.9,229,1135,212,1178,236.8C1221.8,261,1265,327,1309,326.7C1352.7,327,1396,261,1440,261.3C1483.6,261,1527,327,1571,326.7C1614.5,327,1658,261,1702,245C1745.5,229,1789,261,1833,228.7C1876.4,196,1920,98,1964,57.2C2007.3,16,2051,33,2095,32.7C2138.2,33,2182,16,2225,73.5C2269.1,131,2313,261,2356,269.5C2400,278,2444,163,2487,163.3C2530.9,163,2575,278,2618,334.8C2661.8,392,2705,392,2749,343C2792.7,294,2836,196,2880,187.8C2923.6,180,2967,261,3011,277.7C3054.5,294,3098,245,3120,220.5L3141.8,196L3141.8,490L3120,490C3098.2,490,3055,490,3011,490C2967.3,490,2924,490,2880,490C2836.4,490,2793,490,2749,490C2705.5,490,2662,490,2618,490C2574.5,490,2531,490,2487,490C2443.6,490,2400,490,2356,490C2312.7,490,2269,490,2225,490C2181.8,490,2138,490,2095,490C2050.9,490,2007,490,1964,490C1920,490,1876,490,1833,490C1789.1,490,1745,490,1702,490C1658.2,490,1615,490,1571,490C1527.3,490,1484,490,1440,490C1396.4,490,1353,490,1309,490C1265.5,490,1222,490,1178,490C1134.5,490,1091,490,1047,490C1003.6,490,960,490,916,490C872.7,490,829,490,785,490C741.8,490,698,490,655,490C610.9,490,567,490,524,490C480,490,436,490,393,490C349.1,490,305,490,262,490C218.2,490,175,490,131,490C87.3,490,44,490,22,490L0,490Z"/><defs><linearGradient id="sw-gradient-1" x1="0" x2="0" y1="1" y2="0"><stop stop-color="rgba(0, 70.95, 68.019, 1)" offset="0%"/><stop stop-color="rgba(2, 123, 118, 1)" offset="100%"/></linearGradient></defs><path style="transform:translate(0, 50px); opacity:0.9" fill="url(#sw-gradient-1)" d="M0,196L21.8,236.8C43.6,278,87,359,131,351.2C174.5,343,218,245,262,196C305.5,147,349,147,393,155.2C436.4,163,480,180,524,171.5C567.3,163,611,131,655,122.5C698.2,114,742,131,785,138.8C829.1,147,873,147,916,187.8C960,229,1004,310,1047,318.5C1090.9,327,1135,261,1178,220.5C1221.8,180,1265,163,1309,155.2C1352.7,147,1396,147,1440,130.7C1483.6,114,1527,82,1571,73.5C1614.5,65,1658,82,1702,130.7C1745.5,180,1789,261,1833,310.3C1876.4,359,1920,376,1964,359.3C2007.3,343,2051,294,2095,228.7C2138.2,163,2182,82,2225,81.7C2269.1,82,2313,163,2356,179.7C2400,196,2444,147,2487,122.5C2530.9,98,2575,98,2618,130.7C2661.8,163,2705,229,2749,212.3C2792.7,196,2836,98,2880,81.7C2923.6,65,2967,131,3011,196C3054.5,261,3098,327,3120,359.3L3141.8,392L3141.8,490L3120,490C3098.2,490,3055,490,3011,490C2967.3,490,2924,490,2880,490C2836.4,490,2793,490,2749,490C2705.5,490,2662,490,2618,490C2574.5,490,2531,490,2487,490C2443.6,490,2400,490,2356,490C2312.7,490,2269,490,2225,490C2181.8,490,2138,490,2095,490C2050.9,490,2007,490,1964,490C1920,490,1876,490,1833,490C1789.1,490,1745,490,1702,490C1658.2,490,1615,490,1571,490C1527.3,490,1484,490,1440,490C1396.4,490,1353,490,1309,490C1265.5,490,1222,490,1178,490C1134.5,490,1091,490,1047,490C1003.6,490,960,490,916,490C872.7,490,829,490,785,490C741.8,490,698,490,655,490C610.9,490,567,490,524,490C480,490,436,490,393,490C349.1,490,305,490,262,490C218.2,490,175,490,131,490C87.3,490,44,490,22,490L0,490Z"/></svg>