<?xml version="1.0" standalone="no"?>
<svg xmlns:xlink="http://www.w3.org/1999/xlink" id="wave" style="transform:rotate(0deg); transition: 0.3s" viewBox="0 0 1440 490" version="1.1" xmlns="http://www.w3.org/2000/svg"><defs><linearGradient id="sw-gradient-0" x1="0" x2="0" y1="1" y2="0"><stop stop-color="rgba(112.449, 0, 120.99, 1)" offset="0%"/><stop stop-color="rgba(237, 0, 255, 1)" offset="100%"/></linearGradient></defs><path style="transform:translate(0, 0px); opacity:1" fill="url(#sw-gradient-0)" d="M0,147L24,138.8C48,131,96,114,144,106.2C192,98,240,98,288,155.2C336,212,384,327,432,383.8C480,441,528,441,576,424.7C624,408,672,376,720,375.7C768,376,816,408,864,400.2C912,392,960,343,1008,310.3C1056,278,1104,261,1152,261.3C1200,261,1248,278,1296,285.8C1344,294,1392,294,1440,269.5C1488,245,1536,196,1584,187.8C1632,180,1680,212,1728,261.3C1776,310,1824,376,1872,392C1920,408,1968,376,2016,351.2C2064,327,2112,310,2160,261.3C2208,212,2256,131,2304,155.2C2352,180,2400,310,2448,367.5C2496,425,2544,408,2592,367.5C2640,327,2688,261,2736,253.2C2784,245,2832,294,2880,334.8C2928,376,2976,408,3024,392C3072,376,3120,310,3168,236.8C3216,163,3264,82,3312,57.2C3360,33,3408,65,3432,81.7L3456,98L3456,490L3432,490C3408,490,3360,490,3312,490C3264,490,3216,490,3168,490C3120,490,3072,490,3024,490C2976,490,2928,490,2880,490C2832,490,2784,490,2736,490C2688,490,2640,490,2592,490C2544,490,2496,490,2448,490C2400,490,2352,490,2304,490C2256,490,2208,490,2160,490C2112,490,2064,490,2016,490C1968,490,1920,490,1872,490C1824,490,1776,490,1728,490C1680,490,1632,490,1584,490C1536,490,1488,490,1440,490C1392,490,1344,490,1296,490C1248,490,1200,490,1152,490C1104,490,1056,490,1008,490C960,490,912,490,864,490C816,490,768,490,720,490C672,490,624,490,576,490C528,490,480,490,432,490C384,490,336,490,288,490C240,490,192,490,144,490C96,490,48,490,24,490L0,490Z"/></svg>