<?xml version="1.0" standalone="no"?>
<svg xmlns:xlink="http://www.w3.org/1999/xlink" id="wave" style="transform:rotate(0deg); transition: 0.3s" viewBox="0 0 1440 490" version="1.1" xmlns="http://www.w3.org/2000/svg"><defs><linearGradient id="sw-gradient-0" x1="0" x2="0" y1="1" y2="0"><stop stop-color="rgba(0, 81, 78, 1)" offset="0%"/><stop stop-color="rgba(2, 123, 118, 1)" offset="100%"/></linearGradient></defs><path style="transform:translate(0, 0px); opacity:1" fill="url(#sw-gradient-0)" d="M0,49L24,57.2C48,65,96,82,144,98C192,114,240,131,288,155.2C336,180,384,212,432,187.8C480,163,528,82,576,57.2C624,33,672,65,720,130.7C768,196,816,294,864,343C912,392,960,392,1008,367.5C1056,343,1104,294,1152,277.7C1200,261,1248,278,1296,236.8C1344,196,1392,98,1440,89.8C1488,82,1536,163,1584,187.8C1632,212,1680,180,1728,155.2C1776,131,1824,114,1872,114.3C1920,114,1968,131,2016,187.8C2064,245,2112,343,2160,367.5C2208,392,2256,343,2304,343C2352,343,2400,392,2448,375.7C2496,359,2544,278,2592,261.3C2640,245,2688,294,2736,294C2784,294,2832,245,2880,212.3C2928,180,2976,163,3024,187.8C3072,212,3120,278,3168,269.5C3216,261,3264,180,3312,171.5C3360,163,3408,229,3432,261.3L3456,294L3456,490L3432,490C3408,490,3360,490,3312,490C3264,490,3216,490,3168,490C3120,490,3072,490,3024,490C2976,490,2928,490,2880,490C2832,490,2784,490,2736,490C2688,490,2640,490,2592,490C2544,490,2496,490,2448,490C2400,490,2352,490,2304,490C2256,490,2208,490,2160,490C2112,490,2064,490,2016,490C1968,490,1920,490,1872,490C1824,490,1776,490,1728,490C1680,490,1632,490,1584,490C1536,490,1488,490,1440,490C1392,490,1344,490,1296,490C1248,490,1200,490,1152,490C1104,490,1056,490,1008,490C960,490,912,490,864,490C816,490,768,490,720,490C672,490,624,490,576,490C528,490,480,490,432,490C384,490,336,490,288,490C240,490,192,490,144,490C96,490,48,490,24,490L0,490Z"/><defs><linearGradient id="sw-gradient-1" x1="0" x2="0" y1="1" y2="0"><stop stop-color="rgba(0, 81, 78, 1)" offset="0%"/><stop stop-color="rgba(2, 123, 118, 1)" offset="100%"/></linearGradient></defs><path style="transform:translate(0, 50px); opacity:0.9" fill="url(#sw-gradient-1)" d="M0,0L24,40.8C48,82,96,163,144,220.5C192,278,240,310,288,326.7C336,343,384,343,432,326.7C480,310,528,278,576,245C624,212,672,180,720,163.3C768,147,816,147,864,171.5C912,196,960,245,1008,228.7C1056,212,1104,131,1152,155.2C1200,180,1248,310,1296,318.5C1344,327,1392,212,1440,187.8C1488,163,1536,229,1584,212.3C1632,196,1680,98,1728,98C1776,98,1824,196,1872,204.2C1920,212,1968,131,2016,130.7C2064,131,2112,212,2160,245C2208,278,2256,261,2304,245C2352,229,2400,212,2448,171.5C2496,131,2544,65,2592,57.2C2640,49,2688,98,2736,122.5C2784,147,2832,147,2880,187.8C2928,229,2976,310,3024,351.2C3072,392,3120,392,3168,334.8C3216,278,3264,163,3312,98C3360,33,3408,16,3432,8.2L3456,0L3456,490L3432,490C3408,490,3360,490,3312,490C3264,490,3216,490,3168,490C3120,490,3072,490,3024,490C2976,490,2928,490,2880,490C2832,490,2784,490,2736,490C2688,490,2640,490,2592,490C2544,490,2496,490,2448,490C2400,490,2352,490,2304,490C2256,490,2208,490,2160,490C2112,490,2064,490,2016,490C1968,490,1920,490,1872,490C1824,490,1776,490,1728,490C1680,490,1632,490,1584,490C1536,490,1488,490,1440,490C1392,490,1344,490,1296,490C1248,490,1200,490,1152,490C1104,490,1056,490,1008,490C960,490,912,490,864,490C816,490,768,490,720,490C672,490,624,490,576,490C528,490,480,490,432,490C384,490,336,490,288,490C240,490,192,490,144,490C96,490,48,490,24,490L0,490Z"/><defs><linearGradient id="sw-gradient-2" x1="0" x2="0" y1="1" y2="0"><stop stop-color="rgba(0, 81, 78, 1)" offset="0%"/><stop stop-color="rgba(2, 123, 118, 1)" offset="100%"/></linearGradient></defs><path style="transform:translate(0, 100px); opacity:0.8" fill="url(#sw-gradient-2)" d="M0,441L24,383.8C48,327,96,212,144,147C192,82,240,65,288,49C336,33,384,16,432,8.2C480,0,528,0,576,49C624,98,672,196,720,204.2C768,212,816,131,864,155.2C912,180,960,310,1008,302.2C1056,294,1104,147,1152,114.3C1200,82,1248,163,1296,196C1344,229,1392,212,1440,220.5C1488,229,1536,261,1584,302.2C1632,343,1680,392,1728,367.5C1776,343,1824,245,1872,196C1920,147,1968,147,2016,187.8C2064,229,2112,310,2160,334.8C2208,359,2256,327,2304,261.3C2352,196,2400,98,2448,114.3C2496,131,2544,261,2592,269.5C2640,278,2688,163,2736,122.5C2784,82,2832,114,2880,122.5C2928,131,2976,114,3024,98C3072,82,3120,65,3168,49C3216,33,3264,16,3312,40.8C3360,65,3408,131,3432,163.3L3456,196L3456,490L3432,490C3408,490,3360,490,3312,490C3264,490,3216,490,3168,490C3120,490,3072,490,3024,490C2976,490,2928,490,2880,490C2832,490,2784,490,2736,490C2688,490,2640,490,2592,490C2544,490,2496,490,2448,490C2400,490,2352,490,2304,490C2256,490,2208,490,2160,490C2112,490,2064,490,2016,490C1968,490,1920,490,1872,490C1824,490,1776,490,1728,490C1680,490,1632,490,1584,490C1536,490,1488,490,1440,490C1392,490,1344,490,1296,490C1248,490,1200,490,1152,490C1104,490,1056,490,1008,490C960,490,912,490,864,490C816,490,768,490,720,490C672,490,624,490,576,490C528,490,480,490,432,490C384,490,336,490,288,490C240,490,192,490,144,490C96,490,48,490,24,490L0,490Z"/></svg>