<?xml version="1.0" standalone="no"?>
<svg xmlns:xlink="http://www.w3.org/1999/xlink" id="wave" style="transform:rotate(0deg); transition: 0.3s" viewBox="0 0 1440 490" version="1.1" xmlns="http://www.w3.org/2000/svg"><defs><linearGradient id="sw-gradient-0" x1="0" x2="0" y1="1" y2="0"><stop stop-color="rgba(112.449, 0, 120.99, 1)" offset="0%"/><stop stop-color="rgba(237, 0, 255, 1)" offset="100%"/></linearGradient></defs><path style="transform:translate(0, 0px); opacity:1" fill="url(#sw-gradient-0)" d="M0,294L24,253.2C48,212,96,131,144,98C192,65,240,82,288,114.3C336,147,384,196,432,212.3C480,229,528,212,576,236.8C624,261,672,327,720,343C768,359,816,327,864,334.8C912,343,960,392,1008,408.3C1056,425,1104,408,1152,367.5C1200,327,1248,261,1296,236.8C1344,212,1392,229,1440,269.5C1488,310,1536,376,1584,408.3C1632,441,1680,441,1728,367.5C1776,294,1824,147,1872,147C1920,147,1968,294,2016,294C2064,294,2112,147,2160,73.5C2208,0,2256,0,2304,65.3C2352,131,2400,261,2448,318.5C2496,376,2544,359,2592,343C2640,327,2688,310,2736,269.5C2784,229,2832,163,2880,171.5C2928,180,2976,261,3024,253.2C3072,245,3120,147,3168,155.2C3216,163,3264,278,3312,285.8C3360,294,3408,196,3432,147L3456,98L3456,490L3432,490C3408,490,3360,490,3312,490C3264,490,3216,490,3168,490C3120,490,3072,490,3024,490C2976,490,2928,490,2880,490C2832,490,2784,490,2736,490C2688,490,2640,490,2592,490C2544,490,2496,490,2448,490C2400,490,2352,490,2304,490C2256,490,2208,490,2160,490C2112,490,2064,490,2016,490C1968,490,1920,490,1872,490C1824,490,1776,490,1728,490C1680,490,1632,490,1584,490C1536,490,1488,490,1440,490C1392,490,1344,490,1296,490C1248,490,1200,490,1152,490C1104,490,1056,490,1008,490C960,490,912,490,864,490C816,490,768,490,720,490C672,490,624,490,576,490C528,490,480,490,432,490C384,490,336,490,288,490C240,490,192,490,144,490C96,490,48,490,24,490L0,490Z"/></svg>